<svg width="21" height="13" viewBox="0 0 21 13" fill="none" xmlns="http://www.w3.org/2000/svg">
<path d="M20.3931 5.501L20.3932 5.5012C20.6678 6.04886 20.8073 6.65429 20.8001 7.2669H20.8001V7.26925V9.69234C20.8001 10.0677 20.6509 10.4277 20.3855 10.6932C20.1201 10.9586 19.7601 11.1077 19.3847 11.1077H19.2393H19.0991L19.0513 11.2395C18.8955 11.6687 18.6114 12.0395 18.2375 12.3015C17.8636 12.5635 17.4182 12.7041 16.9616 12.7041C16.505 12.7041 16.0595 12.5635 15.6857 12.3015C15.3118 12.0395 15.0277 11.6687 14.8719 11.2395L14.8241 11.1077H14.6839H6.31617H6.17654L6.12842 11.2388C5.96835 11.6749 5.67569 12.0499 5.29155 12.3111C4.90742 12.5723 4.45112 12.7066 3.98673 12.6951C3.52234 12.6837 3.07321 12.5271 2.70241 12.2472C2.33161 11.9674 2.05778 11.5785 1.91938 11.1351L1.8877 11.0335L1.7858 11.003C1.32921 10.8664 0.928621 10.5867 0.643098 10.2051C0.357666 9.82365 0.202338 9.36058 0.2 8.88416V2.42308C0.2 1.83349 0.434217 1.26804 0.851126 0.851127C1.26804 0.434217 1.83349 0.2 2.42308 0.2H12.9231C13.5127 0.2 14.0782 0.434217 14.4951 0.851126C14.912 1.26804 15.1462 1.83349 15.1462 2.42308V2.62308H15.3462L17.5754 2.62309L17.5759 2.62308C17.9953 2.6222 18.4065 2.74003 18.7619 2.96295C19.1172 3.18586 19.4023 3.50478 19.584 3.88283L19.584 3.88284L19.5854 3.88561L20.3931 5.501ZM13.7308 9.89234H13.9308V9.69234V2.42308C13.9308 2.15583 13.8246 1.89952 13.6357 1.71054C13.4467 1.52156 13.1904 1.41539 12.9231 1.41539H2.42308C2.15583 1.41539 1.89952 1.52156 1.71054 1.71054C1.52156 1.89952 1.41539 2.15583 1.41539 2.42308L1.41539 8.88464L1.41539 8.88547C1.41594 9.0188 1.44295 9.15069 1.49484 9.2735C1.54674 9.39632 1.62249 9.50761 1.7177 9.60094L1.91622 9.79552L2.03762 9.54545C2.22852 9.15222 2.53111 8.82399 2.90756 8.60181C3.28401 8.37964 3.71761 8.27337 4.15413 8.2963C4.59065 8.31924 5.01072 8.47035 5.36181 8.73075C5.71291 8.99115 5.97945 9.34928 6.12809 9.76035L6.17582 9.89234H6.31617H13.7308ZM19.3847 9.89234H19.5847L17.5754 4.03847V3.83847H17.5748H15.3462H15.1462V4.03847V6.46156V8.70695V9.15902L15.4807 8.85495C15.8863 8.48627 16.4138 8.28044 16.9619 8.27695C17.4202 8.27842 17.867 8.42153 18.2408 8.68669C18.615 8.95202 18.8978 9.32658 19.0507 9.759L19.0979 9.89234H19.2393H19.3847ZM15.9733 10.3034L16.1694 10.3425L15.9733 10.3034C15.9344 10.4989 15.9543 10.7015 16.0306 10.8857C16.1069 11.0698 16.236 11.2272 16.4017 11.3379C16.5675 11.4486 16.7623 11.5077 16.9616 11.5077C17.2288 11.5077 17.4852 11.4016 17.6741 11.2126C17.8631 11.0236 17.9693 10.7673 17.9693 10.5C17.9693 10.3007 17.9102 10.1059 17.7995 9.94019C17.6887 9.77447 17.5314 9.64532 17.3472 9.56905C17.1631 9.49278 16.9605 9.47282 16.765 9.5117C16.5695 9.55058 16.39 9.64656 16.249 9.78748C16.1081 9.92841 16.0121 10.108 15.9733 10.3034ZM3.47863 11.3379C3.64434 11.4486 3.83917 11.5077 4.03847 11.5077C4.30573 11.5077 4.56204 11.4016 4.75102 11.2126C4.94 11.0236 5.04617 10.7673 5.04617 10.5C5.04617 10.3007 4.98707 10.1059 4.87634 9.94019C4.76561 9.77447 4.60823 9.64532 4.4241 9.56905C4.23997 9.49278 4.03736 9.47282 3.84188 9.5117C3.64641 9.55058 3.46686 9.64656 3.32593 9.78749C3.185 9.92841 3.08902 10.108 3.05014 10.3034C3.01126 10.4989 3.03122 10.7015 3.10749 10.8857C3.18376 11.0698 3.31291 11.2272 3.47863 11.3379Z" fill="#626262" stroke="#191919" stroke-width="0.4"/>
</svg>
