<svg width="8" height="8" viewBox="0 0 8 8" fill="none" xmlns="http://www.w3.org/2000/svg">
<path d="M0 4C0 5.08727 0.00480096 5.22338 0.0240048 5.64932C0.0432086 6.07526 0.112022 6.36669 0.209642 6.6213C0.312062 6.88391 0.44809 7.10809 0.670534 7.32906C0.891378 7.55004 1.11542 7.68935 1.37788 7.79023C1.63233 7.88951 1.92358 7.95677 2.34927 7.97598C2.77656 7.9952 2.91258 8 3.9976 8C5.08422 8 5.22024 7.9952 5.64593 7.97598C6.07161 7.95677 6.36287 7.88791 6.61732 7.79023C6.87978 7.68775 7.10382 7.55164 7.32467 7.32906C7.54551 7.10809 7.68474 6.88391 7.78556 6.6213C7.88478 6.36669 7.95199 6.07526 7.97119 5.64932C7.9904 5.22178 7.9952 5.08567 7.9952 4C7.9952 2.91273 7.9904 2.77662 7.97119 2.35068C7.95199 1.92474 7.88318 1.63331 7.78556 1.3787C7.68314 1.11609 7.54711 0.891913 7.32467 0.670937C7.10542 0.448359 6.88138 0.310649 6.61892 0.209768C6.36447 0.110488 6.07321 0.0432346 5.64753 0.0240192C5.22024 0.00480384 5.08422 0 3.9992 0C2.91258 0 2.77656 0.00480384 2.35087 0.0240192C1.92518 0.0432346 1.63393 0.11209 1.37948 0.209768C1.11702 0.31225 0.892979 0.448359 0.672134 0.670937C0.45129 0.893515 0.312062 1.11609 0.211242 1.3787C0.112022 1.63331 0.0432086 1.92474 0.0240048 2.35068C0.00480096 2.77662 0 2.91273 0 4ZM0.721744 4C0.721744 2.93195 0.726545 2.80384 0.745749 2.38271C0.763353 1.99199 0.828966 1.77902 0.883377 1.63971C0.955391 1.45396 1.04341 1.31946 1.18424 1.17854C1.32507 1.03763 1.45789 0.952762 1.64513 0.877502C1.78596 0.823058 1.9988 0.757406 2.38768 0.739792C2.80856 0.720576 2.93499 0.715773 4.004 0.715773C5.07301 0.715773 5.19944 0.720576 5.62032 0.739792C6.0108 0.757406 6.22364 0.823058 6.36287 0.877502C6.54851 0.94956 6.68294 1.03763 6.82376 1.17854C6.96459 1.31946 7.04941 1.45236 7.12463 1.63971C7.17904 1.78062 7.24465 1.99359 7.26225 2.38271C7.28146 2.80384 7.28626 2.93034 7.28626 4C7.28626 5.06966 7.28146 5.19616 7.26225 5.61729C7.24465 6.00801 7.17904 6.22098 7.12463 6.36029C7.05261 6.54604 6.96459 6.68054 6.82376 6.82146C6.68294 6.96237 6.55011 7.04724 6.36287 7.1225C6.22204 7.17694 6.0092 7.24259 5.62032 7.26021C5.19944 7.27942 5.07301 7.28423 4.004 7.28423C2.93499 7.28423 2.80856 7.27942 2.38768 7.26021C1.9972 7.24259 1.78436 7.17694 1.64513 7.1225C1.45949 7.05044 1.32507 6.96237 1.18424 6.82146C1.04341 6.68054 0.958592 6.54764 0.883377 6.36029C0.828966 6.21938 0.763353 6.0064 0.745749 5.61729C0.724945 5.19616 0.721744 5.06805 0.721744 4Z" fill="#626262"/>
</svg>
