<svg width="8" height="8" viewBox="0 0 8 8" fill="none" xmlns="http://www.w3.org/2000/svg">
<path d="M0 0.888031C0 0.630625 0.0900927 0.41827 0.27027 0.250965C0.450448 0.0836525 0.684687 0 0.972973 0C1.25612 0 1.4852 0.0823629 1.66023 0.247104C1.84041 0.416988 1.9305 0.638347 1.9305 0.911197C1.9305 1.1583 1.84299 1.36422 1.66795 1.52896C1.48778 1.69884 1.25097 1.78378 0.957529 1.78378H0.949807C0.666664 1.78378 0.437583 1.69884 0.262548 1.52896C0.0875135 1.35907 0 1.14543 0 0.888031ZM0.100386 7.64479V2.48649H1.81467V7.64479H0.100386ZM2.76448 7.64479H4.47876V4.76448C4.47876 4.58429 4.49936 4.4453 4.54054 4.34749C4.61261 4.17246 4.72201 4.02445 4.86873 3.90347C5.01544 3.78249 5.19948 3.72201 5.42085 3.72201C5.99743 3.72201 6.28571 4.11068 6.28571 4.88803V7.64479H8V4.68726C8 3.92535 7.81982 3.34749 7.45946 2.95367C7.0991 2.55985 6.62291 2.36293 6.03089 2.36293C5.3668 2.36293 4.84942 2.64865 4.47876 3.22008V3.23552H4.47104L4.47876 3.22008V2.48649H2.76448C2.77477 2.65122 2.77992 3.16344 2.77992 4.02317C2.77992 4.88288 2.77477 6.09008 2.76448 7.64479Z" fill="#626262"/>
</svg>
