<svg width="8" height="6" viewBox="0 0 8 6" fill="none" xmlns="http://www.w3.org/2000/svg">
<path d="M6.81901 1.39439C6.8221 1.45599 6.8221 1.51479 6.8221 1.57639C6.82518 3.44399 5.25703 5.6 2.38928 5.6C1.54346 5.6 0.713079 5.3788 0 4.9644C0.123477 4.9784 0.246954 4.984 0.370431 4.984C1.07116 4.984 1.75337 4.7712 2.30593 4.3764C1.63916 4.3652 1.05264 3.9704 0.848903 3.39359C1.08351 3.43559 1.32429 3.42719 1.55272 3.36839C0.827295 3.23959 0.305605 2.65999 0.302518 1.98519C0.302518 1.97959 0.302518 1.97399 0.302518 1.96839C0.518603 2.07759 0.76247 2.13919 1.00942 2.14479C0.327214 1.73039 0.114216 0.904385 0.527864 0.257583C1.3212 1.14239 2.48806 1.67719 3.74135 1.73599C3.61478 1.24599 3.78765 0.730784 4.19204 0.383583C4.81868 -0.151218 5.8065 -0.123218 6.39919 0.445184C6.74801 0.383583 7.08448 0.265983 7.39009 0.100782C7.27279 0.428383 7.02892 0.705584 6.70479 0.881985C7.01348 0.848385 7.316 0.772785 7.6 0.660784C7.39009 0.946385 7.12461 1.19279 6.81901 1.39439Z" fill="#626262"/>
</svg>
